<mxfile host="app.diagrams.net" modified="2021-03-24T09:05:28.255Z" agent="5.0 (Windows NT 10.0; Win64; x64) AppleWebKit/537.36 (KHTML, like Gecko) Chrome/89.0.4389.90 Safari/537.36" etag="KQGGOEGLQpXvvpP_1j5I" version="14.5.1" type="github">
  <diagram id="LdpQXu2ro5RO-h5vmIfJ" name="Page-1">
    <mxGraphModel dx="1386" dy="757" grid="1" gridSize="10" guides="1" tooltips="1" connect="1" arrows="1" fold="1" page="1" pageScale="1" pageWidth="827" pageHeight="1169" math="0" shadow="0">
      <root>
        <mxCell id="0" />
        <mxCell id="1" parent="0" />
        <mxCell id="du79DOzJBMFekYwqTNL2-48" value="&lt;p style=&quot;margin: 0px ; margin-top: 6px ; text-align: center&quot;&gt;«component»&lt;br&gt;&lt;/p&gt;&lt;p style=&quot;margin: 0px ; margin-top: 6px ; text-align: center&quot;&gt;&lt;b&gt;Store&lt;/b&gt;&lt;/p&gt;&lt;hr&gt;&lt;p style=&quot;margin: 0px ; margin-left: 8px&quot;&gt;&lt;br&gt;&lt;/p&gt;" style="align=left;overflow=fill;html=1;dropTarget=0;" parent="1" vertex="1">
          <mxGeometry x="160" y="160" width="400" height="480" as="geometry" />
        </mxCell>
        <mxCell id="du79DOzJBMFekYwqTNL2-49" value="" style="shape=component;jettyWidth=8;jettyHeight=4;" parent="du79DOzJBMFekYwqTNL2-48" vertex="1">
          <mxGeometry x="1" width="20" height="20" relative="1" as="geometry">
            <mxPoint x="-24" y="4" as="offset" />
          </mxGeometry>
        </mxCell>
        <mxCell id="du79DOzJBMFekYwqTNL2-51" value="«subcomponent»&lt;br&gt;&lt;b&gt;Order&lt;/b&gt;" style="html=1;dropTarget=0;" parent="1" vertex="1">
          <mxGeometry x="190" y="260" width="160" height="50" as="geometry" />
        </mxCell>
        <mxCell id="du79DOzJBMFekYwqTNL2-52" value="" style="shape=module;jettyWidth=8;jettyHeight=4;" parent="du79DOzJBMFekYwqTNL2-51" vertex="1">
          <mxGeometry x="1" width="20" height="20" relative="1" as="geometry">
            <mxPoint x="-27" y="7" as="offset" />
          </mxGeometry>
        </mxCell>
        <mxCell id="du79DOzJBMFekYwqTNL2-53" value="«subcomponent»&lt;br&gt;&lt;b&gt;Costumer&lt;/b&gt;" style="html=1;dropTarget=0;" parent="1" vertex="1">
          <mxGeometry x="190" y="390" width="160" height="50" as="geometry" />
        </mxCell>
        <mxCell id="du79DOzJBMFekYwqTNL2-54" value="" style="shape=module;jettyWidth=8;jettyHeight=4;" parent="du79DOzJBMFekYwqTNL2-53" vertex="1">
          <mxGeometry x="1" width="20" height="20" relative="1" as="geometry">
            <mxPoint x="-27" y="7" as="offset" />
          </mxGeometry>
        </mxCell>
        <mxCell id="du79DOzJBMFekYwqTNL2-55" value="«subcomponent»&lt;br&gt;&lt;b&gt;Product&lt;/b&gt;" style="html=1;dropTarget=0;" parent="1" vertex="1">
          <mxGeometry x="190" y="520" width="160" height="50" as="geometry" />
        </mxCell>
        <mxCell id="du79DOzJBMFekYwqTNL2-56" value="" style="shape=module;jettyWidth=8;jettyHeight=4;" parent="du79DOzJBMFekYwqTNL2-55" vertex="1">
          <mxGeometry x="1" width="20" height="20" relative="1" as="geometry">
            <mxPoint x="-27" y="7" as="offset" />
          </mxGeometry>
        </mxCell>
        <mxCell id="du79DOzJBMFekYwqTNL2-58" value="" style="shape=providedRequiredInterface;html=1;verticalLabelPosition=bottom;rotation=-90;" parent="1" vertex="1">
          <mxGeometry x="260" y="340" width="20" height="20" as="geometry" />
        </mxCell>
        <mxCell id="du79DOzJBMFekYwqTNL2-61" value="" style="endArrow=none;html=1;exitX=1;exitY=0.5;exitDx=0;exitDy=0;exitPerimeter=0;entryX=0.5;entryY=1;entryDx=0;entryDy=0;" parent="1" source="du79DOzJBMFekYwqTNL2-58" target="du79DOzJBMFekYwqTNL2-51" edge="1">
          <mxGeometry width="50" height="50" relative="1" as="geometry">
            <mxPoint x="190" y="340" as="sourcePoint" />
            <mxPoint x="240" y="290" as="targetPoint" />
          </mxGeometry>
        </mxCell>
        <mxCell id="du79DOzJBMFekYwqTNL2-62" value="Person" style="text;align=center;fontStyle=1;verticalAlign=middle;spacingLeft=3;spacingRight=3;strokeColor=none;rotatable=0;points=[[0,0.5],[1,0.5]];portConstraint=eastwest;" parent="1" vertex="1">
          <mxGeometry x="290" y="337" width="50" height="26" as="geometry" />
        </mxCell>
        <mxCell id="du79DOzJBMFekYwqTNL2-63" value="" style="endArrow=none;html=1;exitX=0.5;exitY=0;exitDx=0;exitDy=0;entryX=0;entryY=0.5;entryDx=0;entryDy=0;entryPerimeter=0;" parent="1" source="du79DOzJBMFekYwqTNL2-53" target="du79DOzJBMFekYwqTNL2-58" edge="1">
          <mxGeometry width="50" height="50" relative="1" as="geometry">
            <mxPoint x="190" y="340" as="sourcePoint" />
            <mxPoint x="240" y="290" as="targetPoint" />
          </mxGeometry>
        </mxCell>
        <mxCell id="du79DOzJBMFekYwqTNL2-64" value="" style="rounded=0;whiteSpace=wrap;html=1;" parent="1" vertex="1">
          <mxGeometry x="150" y="275" width="20" height="20" as="geometry" />
        </mxCell>
        <mxCell id="du79DOzJBMFekYwqTNL2-65" value="" style="shape=providedRequiredInterface;html=1;verticalLabelPosition=bottom;rotation=-90;" parent="1" vertex="1">
          <mxGeometry x="404" y="405" width="20" height="20" as="geometry" />
        </mxCell>
        <mxCell id="du79DOzJBMFekYwqTNL2-66" value="" style="endArrow=none;html=1;entryX=1;entryY=0.5;entryDx=0;entryDy=0;entryPerimeter=0;exitX=1;exitY=0.5;exitDx=0;exitDy=0;" parent="1" source="du79DOzJBMFekYwqTNL2-51" target="du79DOzJBMFekYwqTNL2-65" edge="1">
          <mxGeometry width="50" height="50" relative="1" as="geometry">
            <mxPoint x="414" y="290" as="sourcePoint" />
            <mxPoint x="340" y="290" as="targetPoint" />
            <Array as="points">
              <mxPoint x="414" y="285" />
            </Array>
          </mxGeometry>
        </mxCell>
        <mxCell id="du79DOzJBMFekYwqTNL2-67" value="" style="endArrow=none;html=1;entryX=0;entryY=0.5;entryDx=0;entryDy=0;entryPerimeter=0;exitX=1;exitY=0.5;exitDx=0;exitDy=0;" parent="1" source="du79DOzJBMFekYwqTNL2-55" target="du79DOzJBMFekYwqTNL2-65" edge="1">
          <mxGeometry width="50" height="50" relative="1" as="geometry">
            <mxPoint x="290" y="340" as="sourcePoint" />
            <mxPoint x="340" y="290" as="targetPoint" />
            <Array as="points">
              <mxPoint x="414" y="545" />
            </Array>
          </mxGeometry>
        </mxCell>
        <mxCell id="du79DOzJBMFekYwqTNL2-68" value="" style="shape=requiredInterface;html=1;verticalLabelPosition=bottom;" parent="1" vertex="1">
          <mxGeometry x="105" y="405" width="10" height="20" as="geometry" />
        </mxCell>
        <mxCell id="du79DOzJBMFekYwqTNL2-69" value="" style="endArrow=none;html=1;exitX=1;exitY=0.5;exitDx=0;exitDy=0;exitPerimeter=0;entryX=0;entryY=0.5;entryDx=0;entryDy=0;" parent="1" source="du79DOzJBMFekYwqTNL2-68" target="du79DOzJBMFekYwqTNL2-53" edge="1">
          <mxGeometry width="50" height="50" relative="1" as="geometry">
            <mxPoint x="290" y="340" as="sourcePoint" />
            <mxPoint x="340" y="290" as="targetPoint" />
          </mxGeometry>
        </mxCell>
        <mxCell id="du79DOzJBMFekYwqTNL2-70" value="" style="ellipse;whiteSpace=wrap;html=1;aspect=fixed;" parent="1" vertex="1">
          <mxGeometry x="100" y="275" width="20" height="20" as="geometry" />
        </mxCell>
        <mxCell id="du79DOzJBMFekYwqTNL2-71" value="" style="shape=providedRequiredInterface;html=1;verticalLabelPosition=bottom;" parent="1" vertex="1">
          <mxGeometry x="620" y="269.5" width="20" height="20" as="geometry" />
        </mxCell>
        <mxCell id="du79DOzJBMFekYwqTNL2-72" value="" style="shape=providedRequiredInterface;html=1;verticalLabelPosition=bottom;" parent="1" vertex="1">
          <mxGeometry x="620" y="390" width="20" height="20" as="geometry" />
        </mxCell>
        <mxCell id="du79DOzJBMFekYwqTNL2-73" value="" style="shape=providedRequiredInterface;html=1;verticalLabelPosition=bottom;rotation=-180;" parent="1" vertex="1">
          <mxGeometry x="620" y="545" width="20" height="20" as="geometry" />
        </mxCell>
        <mxCell id="du79DOzJBMFekYwqTNL2-74" value="«component»&lt;br&gt;&lt;b&gt;CheckUp&lt;/b&gt;" style="html=1;dropTarget=0;" parent="1" vertex="1">
          <mxGeometry x="670" y="257" width="140" height="45" as="geometry" />
        </mxCell>
        <mxCell id="du79DOzJBMFekYwqTNL2-75" value="" style="shape=module;jettyWidth=8;jettyHeight=4;" parent="du79DOzJBMFekYwqTNL2-74" vertex="1">
          <mxGeometry x="1" width="20" height="20" relative="1" as="geometry">
            <mxPoint x="-27" y="7" as="offset" />
          </mxGeometry>
        </mxCell>
        <mxCell id="du79DOzJBMFekYwqTNL2-76" value="«component»&lt;br&gt;&lt;b&gt;DataWarehouse&lt;/b&gt;" style="html=1;dropTarget=0;" parent="1" vertex="1">
          <mxGeometry x="670" y="377.5" width="140" height="45" as="geometry" />
        </mxCell>
        <mxCell id="du79DOzJBMFekYwqTNL2-77" value="" style="shape=module;jettyWidth=8;jettyHeight=4;" parent="du79DOzJBMFekYwqTNL2-76" vertex="1">
          <mxGeometry x="1" width="20" height="20" relative="1" as="geometry">
            <mxPoint x="-27" y="7" as="offset" />
          </mxGeometry>
        </mxCell>
        <mxCell id="du79DOzJBMFekYwqTNL2-78" value="«component»&lt;br&gt;&lt;b&gt;Email&lt;/b&gt;" style="html=1;dropTarget=0;" parent="1" vertex="1">
          <mxGeometry x="670" y="532.5" width="140" height="45" as="geometry" />
        </mxCell>
        <mxCell id="du79DOzJBMFekYwqTNL2-79" value="" style="shape=module;jettyWidth=8;jettyHeight=4;" parent="du79DOzJBMFekYwqTNL2-78" vertex="1">
          <mxGeometry x="1" width="20" height="20" relative="1" as="geometry">
            <mxPoint x="-27" y="7" as="offset" />
          </mxGeometry>
        </mxCell>
        <mxCell id="du79DOzJBMFekYwqTNL2-80" value="Inventory" style="text;align=center;fontStyle=1;verticalAlign=middle;spacingLeft=3;spacingRight=3;strokeColor=none;rotatable=0;points=[[0,0.5],[1,0.5]];portConstraint=eastwest;" parent="1" vertex="1">
          <mxGeometry x="590" y="289.5" width="80" height="26" as="geometry" />
        </mxCell>
        <mxCell id="du79DOzJBMFekYwqTNL2-81" value="ThroughputInfo" style="text;align=center;fontStyle=1;verticalAlign=middle;spacingLeft=3;spacingRight=3;strokeColor=none;rotatable=0;points=[[0,0.5],[1,0.5]];portConstraint=eastwest;" parent="1" vertex="1">
          <mxGeometry x="590" y="416.5" width="80" height="26" as="geometry" />
        </mxCell>
        <mxCell id="du79DOzJBMFekYwqTNL2-82" value="Notification" style="text;align=center;fontStyle=1;verticalAlign=middle;spacingLeft=3;spacingRight=3;strokeColor=none;rotatable=0;points=[[0,0.5],[1,0.5]];portConstraint=eastwest;" parent="1" vertex="1">
          <mxGeometry x="590" y="567.5" width="80" height="26" as="geometry" />
        </mxCell>
        <mxCell id="du79DOzJBMFekYwqTNL2-83" value="Account" style="text;align=center;fontStyle=1;verticalAlign=middle;spacingLeft=3;spacingRight=3;strokeColor=none;rotatable=0;points=[[0,0.5],[1,0.5]];portConstraint=eastwest;" parent="1" vertex="1">
          <mxGeometry x="70" y="374" width="80" height="26" as="geometry" />
        </mxCell>
        <mxCell id="du79DOzJBMFekYwqTNL2-84" value="OrderEntries" style="text;align=center;fontStyle=1;verticalAlign=middle;spacingLeft=3;spacingRight=3;strokeColor=none;rotatable=0;points=[[0,0.5],[1,0.5]];portConstraint=eastwest;" parent="1" vertex="1">
          <mxGeometry x="70" y="240" width="80" height="26" as="geometry" />
        </mxCell>
        <mxCell id="du79DOzJBMFekYwqTNL2-85" value="" style="endArrow=none;html=1;entryX=0;entryY=0.5;entryDx=0;entryDy=0;" parent="1" target="du79DOzJBMFekYwqTNL2-51" edge="1">
          <mxGeometry width="50" height="50" relative="1" as="geometry">
            <mxPoint x="170" y="285" as="sourcePoint" />
            <mxPoint x="330" y="290" as="targetPoint" />
          </mxGeometry>
        </mxCell>
        <mxCell id="du79DOzJBMFekYwqTNL2-86" value="" style="endArrow=none;html=1;exitX=1;exitY=0.5;exitDx=0;exitDy=0;" parent="1" source="du79DOzJBMFekYwqTNL2-70" edge="1">
          <mxGeometry width="50" height="50" relative="1" as="geometry">
            <mxPoint x="280" y="340" as="sourcePoint" />
            <mxPoint x="150" y="285" as="targetPoint" />
          </mxGeometry>
        </mxCell>
        <mxCell id="du79DOzJBMFekYwqTNL2-87" value="" style="endArrow=none;html=1;entryX=0;entryY=0.5;entryDx=0;entryDy=0;entryPerimeter=0;exitX=1;exitY=0.25;exitDx=0;exitDy=0;" parent="1" source="du79DOzJBMFekYwqTNL2-48" target="du79DOzJBMFekYwqTNL2-71" edge="1">
          <mxGeometry width="50" height="50" relative="1" as="geometry">
            <mxPoint x="480" y="480" as="sourcePoint" />
            <mxPoint x="530" y="430" as="targetPoint" />
          </mxGeometry>
        </mxCell>
        <mxCell id="du79DOzJBMFekYwqTNL2-90" value="" style="endArrow=none;html=1;exitX=1;exitY=0.5;exitDx=0;exitDy=0;exitPerimeter=0;entryX=0;entryY=0.5;entryDx=0;entryDy=0;" parent="1" source="du79DOzJBMFekYwqTNL2-71" target="du79DOzJBMFekYwqTNL2-74" edge="1">
          <mxGeometry width="50" height="50" relative="1" as="geometry">
            <mxPoint x="520" y="350" as="sourcePoint" />
            <mxPoint x="650" y="260" as="targetPoint" />
          </mxGeometry>
        </mxCell>
        <mxCell id="du79DOzJBMFekYwqTNL2-91" value="" style="endArrow=none;html=1;entryX=0;entryY=0.5;entryDx=0;entryDy=0;entryPerimeter=0;exitX=1;exitY=0.5;exitDx=0;exitDy=0;" parent="1" source="du79DOzJBMFekYwqTNL2-48" target="du79DOzJBMFekYwqTNL2-72" edge="1">
          <mxGeometry width="50" height="50" relative="1" as="geometry">
            <mxPoint x="400" y="430" as="sourcePoint" />
            <mxPoint x="450" y="380" as="targetPoint" />
          </mxGeometry>
        </mxCell>
        <mxCell id="du79DOzJBMFekYwqTNL2-92" value="" style="endArrow=none;html=1;entryX=0;entryY=0.5;entryDx=0;entryDy=0;exitX=1;exitY=0.5;exitDx=0;exitDy=0;exitPerimeter=0;" parent="1" source="du79DOzJBMFekYwqTNL2-72" target="du79DOzJBMFekYwqTNL2-76" edge="1">
          <mxGeometry width="50" height="50" relative="1" as="geometry">
            <mxPoint x="400" y="430" as="sourcePoint" />
            <mxPoint x="450" y="380" as="targetPoint" />
          </mxGeometry>
        </mxCell>
        <mxCell id="du79DOzJBMFekYwqTNL2-93" value="" style="endArrow=none;html=1;entryX=1;entryY=0.5;entryDx=0;entryDy=0;entryPerimeter=0;" parent="1" target="du79DOzJBMFekYwqTNL2-73" edge="1">
          <mxGeometry width="50" height="50" relative="1" as="geometry">
            <mxPoint x="560" y="555" as="sourcePoint" />
            <mxPoint x="610" y="555" as="targetPoint" />
          </mxGeometry>
        </mxCell>
        <mxCell id="du79DOzJBMFekYwqTNL2-94" value="" style="endArrow=none;html=1;entryX=0;entryY=0.5;entryDx=0;entryDy=0;exitX=0;exitY=0.5;exitDx=0;exitDy=0;exitPerimeter=0;" parent="1" source="du79DOzJBMFekYwqTNL2-73" target="du79DOzJBMFekYwqTNL2-78" edge="1">
          <mxGeometry width="50" height="50" relative="1" as="geometry">
            <mxPoint x="650" y="555" as="sourcePoint" />
            <mxPoint x="450" y="450" as="targetPoint" />
          </mxGeometry>
        </mxCell>
        <mxCell id="du79DOzJBMFekYwqTNL2-95" value="OrderableItem" style="text;align=center;fontStyle=1;verticalAlign=middle;spacingLeft=3;spacingRight=3;strokeColor=none;rotatable=0;points=[[0,0.5],[1,0.5]];portConstraint=eastwest;" parent="1" vertex="1">
          <mxGeometry x="440" y="402" width="80" height="26" as="geometry" />
        </mxCell>
      </root>
    </mxGraphModel>
  </diagram>
</mxfile>
